<mxfile host="Electron" modified="2024-06-02T23:30:17.869Z" agent="Mozilla/5.0 (Windows NT 10.0; Win64; x64) AppleWebKit/537.36 (KHTML, like Gecko) draw.io/24.1.0 Chrome/120.0.6099.109 Electron/28.1.0 Safari/537.36" etag="oMElSpb2EnjuuMaI1b5X" version="24.1.0" type="device">
  <diagram name="Page-1" id="0_W48GVzdCx1-el_yckO">
    <mxGraphModel dx="2910" dy="2283" grid="1" gridSize="10" guides="1" tooltips="1" connect="1" arrows="1" fold="1" page="1" pageScale="1" pageWidth="850" pageHeight="1100" math="0" shadow="0">
      <root>
        <mxCell id="0" />
        <mxCell id="1" parent="0" />
        <mxCell id="saqj0XL1vO1jZBFyPsfs-25" value="" style="rounded=0;whiteSpace=wrap;html=1;fontFamily=LXGW WenKai;" vertex="1" parent="1">
          <mxGeometry x="550" y="-430" width="210" height="120" as="geometry" />
        </mxCell>
        <mxCell id="WGHWqVyYg-gQo-DfAQsf-60" value="" style="rounded=0;whiteSpace=wrap;html=1;fontFamily=LXGW WenKai;" parent="1" vertex="1">
          <mxGeometry x="160" y="200" width="560" height="240" as="geometry" />
        </mxCell>
        <mxCell id="WGHWqVyYg-gQo-DfAQsf-1" value="" style="rounded=0;whiteSpace=wrap;html=1;fontFamily=LXGW WenKai;" parent="1" vertex="1">
          <mxGeometry x="200" y="240" width="160" height="160" as="geometry" />
        </mxCell>
        <mxCell id="WGHWqVyYg-gQo-DfAQsf-2" value="DiskFileMetaPage" style="text;html=1;align=center;verticalAlign=middle;whiteSpace=wrap;rounded=0;fontColor=#007FFF;fontStyle=1;fontFamily=LXGW WenKai;" parent="1" vertex="1">
          <mxGeometry x="230" y="240" width="60" height="30" as="geometry" />
        </mxCell>
        <mxCell id="WGHWqVyYg-gQo-DfAQsf-4" value="num_allocated_pages_" style="text;html=1;align=center;verticalAlign=middle;whiteSpace=wrap;rounded=0;fontFamily=LXGW WenKai;" parent="1" vertex="1">
          <mxGeometry x="250" y="285" width="60" height="30" as="geometry" />
        </mxCell>
        <mxCell id="WGHWqVyYg-gQo-DfAQsf-5" value="num_extents_" style="text;html=1;align=center;verticalAlign=middle;whiteSpace=wrap;rounded=0;fontFamily=LXGW WenKai;" parent="1" vertex="1">
          <mxGeometry x="250" y="305" width="60" height="30" as="geometry" />
        </mxCell>
        <mxCell id="WGHWqVyYg-gQo-DfAQsf-6" value="extent_used_page_[]&lt;div&gt;4096/4-2=1022Extents&lt;/div&gt;" style="text;html=1;align=center;verticalAlign=middle;whiteSpace=wrap;rounded=0;fontFamily=LXGW WenKai;" parent="1" vertex="1">
          <mxGeometry x="205" y="340" width="150" height="30" as="geometry" />
        </mxCell>
        <mxCell id="WGHWqVyYg-gQo-DfAQsf-7" value="" style="rounded=0;whiteSpace=wrap;html=1;fontFamily=LXGW WenKai;" parent="1" vertex="1">
          <mxGeometry x="360" y="240" width="160" height="160" as="geometry" />
        </mxCell>
        <mxCell id="WGHWqVyYg-gQo-DfAQsf-8" value="" style="rounded=0;whiteSpace=wrap;html=1;fontFamily=LXGW WenKai;" parent="1" vertex="1">
          <mxGeometry x="380" y="265" width="120" height="80" as="geometry" />
        </mxCell>
        <mxCell id="WGHWqVyYg-gQo-DfAQsf-9" value="Extent" style="text;html=1;align=center;verticalAlign=middle;whiteSpace=wrap;rounded=0;fontFamily=LXGW WenKai;" parent="1" vertex="1">
          <mxGeometry x="360" y="240" width="60" height="30" as="geometry" />
        </mxCell>
        <mxCell id="WGHWqVyYg-gQo-DfAQsf-11" value="" style="rounded=0;whiteSpace=wrap;html=1;fillColor=#f8cecc;strokeColor=#b85450;fontFamily=LXGW WenKai;" parent="1" vertex="1">
          <mxGeometry x="400" y="370" width="20" height="20" as="geometry" />
        </mxCell>
        <mxCell id="WGHWqVyYg-gQo-DfAQsf-13" value="BitmapPage&amp;lt;4096&amp;gt;" style="text;html=1;align=center;verticalAlign=middle;whiteSpace=wrap;rounded=0;fontColor=#007FFF;fontStyle=1;fontFamily=LXGW WenKai;" parent="1" vertex="1">
          <mxGeometry x="405" y="260" width="60" height="30" as="geometry" />
        </mxCell>
        <mxCell id="WGHWqVyYg-gQo-DfAQsf-14" value="" style="rounded=0;whiteSpace=wrap;html=1;fillColor=#d5e8d4;strokeColor=#82b366;fontFamily=LXGW WenKai;" parent="1" vertex="1">
          <mxGeometry x="410" y="320" width="10" height="10" as="geometry" />
        </mxCell>
        <mxCell id="WGHWqVyYg-gQo-DfAQsf-15" value="" style="rounded=0;whiteSpace=wrap;html=1;fillColor=#d5e8d4;strokeColor=#82b366;fontFamily=LXGW WenKai;" parent="1" vertex="1">
          <mxGeometry x="420" y="320" width="10" height="10" as="geometry" />
        </mxCell>
        <mxCell id="WGHWqVyYg-gQo-DfAQsf-16" value="" style="rounded=0;whiteSpace=wrap;html=1;fillColor=#d5e8d4;strokeColor=#82b366;fontFamily=LXGW WenKai;" parent="1" vertex="1">
          <mxGeometry x="430" y="320" width="10" height="10" as="geometry" />
        </mxCell>
        <mxCell id="WGHWqVyYg-gQo-DfAQsf-18" value="" style="rounded=0;whiteSpace=wrap;html=1;fillColor=#d5e8d4;strokeColor=#82b366;fontFamily=LXGW WenKai;" parent="1" vertex="1">
          <mxGeometry x="410" y="330" width="10" height="10" as="geometry" />
        </mxCell>
        <mxCell id="WGHWqVyYg-gQo-DfAQsf-19" value="" style="rounded=0;whiteSpace=wrap;html=1;fillColor=#d5e8d4;strokeColor=#82b366;fontFamily=LXGW WenKai;" parent="1" vertex="1">
          <mxGeometry x="420" y="330" width="10" height="10" as="geometry" />
        </mxCell>
        <mxCell id="WGHWqVyYg-gQo-DfAQsf-20" value="" style="rounded=0;whiteSpace=wrap;html=1;fillColor=#d5e8d4;strokeColor=#82b366;fontFamily=LXGW WenKai;" parent="1" vertex="1">
          <mxGeometry x="430" y="330" width="10" height="10" as="geometry" />
        </mxCell>
        <mxCell id="WGHWqVyYg-gQo-DfAQsf-42" value="" style="rounded=0;whiteSpace=wrap;html=1;fillColor=#f8cecc;strokeColor=#b85450;fontFamily=LXGW WenKai;" parent="1" vertex="1">
          <mxGeometry x="400" y="320" width="10" height="10" as="geometry" />
        </mxCell>
        <mxCell id="WGHWqVyYg-gQo-DfAQsf-43" value="" style="rounded=0;whiteSpace=wrap;html=1;fillColor=#d5e8d4;strokeColor=#82b366;fontFamily=LXGW WenKai;" parent="1" vertex="1">
          <mxGeometry x="400" y="330" width="10" height="10" as="geometry" />
        </mxCell>
        <mxCell id="WGHWqVyYg-gQo-DfAQsf-46" value="bit" style="rounded=0;whiteSpace=wrap;html=1;fillColor=#d5e8d4;strokeColor=#82b366;fontFamily=LXGW WenKai;" parent="1" vertex="1">
          <mxGeometry x="390" y="320" width="10" height="10" as="geometry" />
        </mxCell>
        <mxCell id="WGHWqVyYg-gQo-DfAQsf-47" value="" style="rounded=0;whiteSpace=wrap;html=1;fillColor=#d5e8d4;strokeColor=#82b366;fontFamily=LXGW WenKai;" parent="1" vertex="1">
          <mxGeometry x="390" y="330" width="10" height="10" as="geometry" />
        </mxCell>
        <mxCell id="WGHWqVyYg-gQo-DfAQsf-50" value="" style="rounded=0;whiteSpace=wrap;html=1;fillColor=#d5e8d4;strokeColor=#82b366;fontFamily=LXGW WenKai;" parent="1" vertex="1">
          <mxGeometry x="420" y="370" width="20" height="20" as="geometry" />
        </mxCell>
        <mxCell id="WGHWqVyYg-gQo-DfAQsf-51" value="x4088*8" style="text;html=1;align=center;verticalAlign=middle;whiteSpace=wrap;rounded=0;fontFamily=LXGW WenKai;" parent="1" vertex="1">
          <mxGeometry x="440" y="315" width="60" height="30" as="geometry" />
        </mxCell>
        <mxCell id="WGHWqVyYg-gQo-DfAQsf-52" value="" style="rounded=0;whiteSpace=wrap;html=1;fillColor=#d5e8d4;strokeColor=#82b366;fontFamily=LXGW WenKai;" parent="1" vertex="1">
          <mxGeometry x="440" y="370" width="20" height="20" as="geometry" />
        </mxCell>
        <mxCell id="WGHWqVyYg-gQo-DfAQsf-53" value="x4088*8" style="text;html=1;align=center;verticalAlign=middle;whiteSpace=wrap;rounded=0;fontFamily=LXGW WenKai;" parent="1" vertex="1">
          <mxGeometry x="460" y="365" width="60" height="30" as="geometry" />
        </mxCell>
        <mxCell id="WGHWqVyYg-gQo-DfAQsf-54" value="page_allocated_" style="text;html=1;align=center;verticalAlign=middle;whiteSpace=wrap;rounded=0;fontFamily=LXGW WenKai;" parent="1" vertex="1">
          <mxGeometry x="410" y="280" width="60" height="30" as="geometry" />
        </mxCell>
        <mxCell id="WGHWqVyYg-gQo-DfAQsf-55" value="next_free_page_" style="text;html=1;align=center;verticalAlign=middle;whiteSpace=wrap;rounded=0;fontFamily=LXGW WenKai;" parent="1" vertex="1">
          <mxGeometry x="410" y="295" width="60" height="30" as="geometry" />
        </mxCell>
        <mxCell id="WGHWqVyYg-gQo-DfAQsf-10" value="4KB" style="rounded=0;whiteSpace=wrap;html=1;fillColor=#d5e8d4;strokeColor=#82b366;fontFamily=LXGW WenKai;" parent="1" vertex="1">
          <mxGeometry x="380" y="370" width="20" height="20" as="geometry" />
        </mxCell>
        <mxCell id="WGHWqVyYg-gQo-DfAQsf-56" value="4KB" style="text;html=1;align=center;verticalAlign=middle;whiteSpace=wrap;rounded=0;fontFamily=LXGW WenKai;" parent="1" vertex="1">
          <mxGeometry x="240" y="400" width="60" height="30" as="geometry" />
        </mxCell>
        <mxCell id="WGHWqVyYg-gQo-DfAQsf-57" value="4KB" style="text;html=1;align=center;verticalAlign=middle;whiteSpace=wrap;rounded=0;labelBackgroundColor=default;fontFamily=LXGW WenKai;" parent="1" vertex="1">
          <mxGeometry x="470" y="250" width="60" height="30" as="geometry" />
        </mxCell>
        <mxCell id="WGHWqVyYg-gQo-DfAQsf-58" value="~128MB" style="text;html=1;align=center;verticalAlign=middle;whiteSpace=wrap;rounded=0;labelBackgroundColor=none;fontFamily=LXGW WenKai;" parent="1" vertex="1">
          <mxGeometry x="405" y="400" width="60" height="30" as="geometry" />
        </mxCell>
        <mxCell id="WGHWqVyYg-gQo-DfAQsf-59" value="~128GB" style="text;html=1;align=center;verticalAlign=middle;whiteSpace=wrap;rounded=0;labelBackgroundColor=none;fontFamily=LXGW WenKai;" parent="1" vertex="1">
          <mxGeometry x="380" y="450" width="60" height="30" as="geometry" />
        </mxCell>
        <mxCell id="WGHWqVyYg-gQo-DfAQsf-62" value="" style="rounded=0;whiteSpace=wrap;html=1;fontFamily=LXGW WenKai;" parent="1" vertex="1">
          <mxGeometry x="520" y="240" width="160" height="160" as="geometry" />
        </mxCell>
        <mxCell id="WGHWqVyYg-gQo-DfAQsf-61" value="x1022" style="text;html=1;align=center;verticalAlign=middle;whiteSpace=wrap;rounded=0;fontFamily=LXGW WenKai;" parent="1" vertex="1">
          <mxGeometry x="570" y="305" width="60" height="30" as="geometry" />
        </mxCell>
        <mxCell id="WGHWqVyYg-gQo-DfAQsf-65" value="Extent" style="text;html=1;align=center;verticalAlign=middle;whiteSpace=wrap;rounded=0;fontFamily=LXGW WenKai;" parent="1" vertex="1">
          <mxGeometry x="520" y="240" width="60" height="30" as="geometry" />
        </mxCell>
        <mxCell id="WGHWqVyYg-gQo-DfAQsf-66" value="33,423,488 Pages" style="text;html=1;align=center;verticalAlign=middle;whiteSpace=wrap;rounded=0;fontFamily=LXGW WenKai;" parent="1" vertex="1">
          <mxGeometry x="430" y="450" width="170" height="30" as="geometry" />
        </mxCell>
        <mxCell id="WGHWqVyYg-gQo-DfAQsf-67" value="" style="rounded=0;whiteSpace=wrap;html=1;fontFamily=LXGW WenKai;" parent="1" vertex="1">
          <mxGeometry x="160" y="80" width="560" height="80" as="geometry" />
        </mxCell>
        <mxCell id="WGHWqVyYg-gQo-DfAQsf-68" value="DiskManager" style="text;html=1;align=center;verticalAlign=middle;whiteSpace=wrap;rounded=0;fontColor=#007FFF;fontStyle=1;fontFamily=LXGW WenKai;" parent="1" vertex="1">
          <mxGeometry x="190" y="80" width="60" height="30" as="geometry" />
        </mxCell>
        <mxCell id="WGHWqVyYg-gQo-DfAQsf-71" value="meta_data_" style="rounded=0;whiteSpace=wrap;html=1;fontFamily=LXGW WenKai;" parent="1" vertex="1">
          <mxGeometry x="190" y="120" width="80" height="30" as="geometry" />
        </mxCell>
        <mxCell id="WGHWqVyYg-gQo-DfAQsf-72" value="" style="endArrow=classic;html=1;rounded=0;entryX=0.5;entryY=1;entryDx=0;entryDy=0;exitX=0.75;exitY=0;exitDx=0;exitDy=0;fontFamily=LXGW WenKai;" parent="1" source="WGHWqVyYg-gQo-DfAQsf-2" target="WGHWqVyYg-gQo-DfAQsf-71" edge="1">
          <mxGeometry width="50" height="50" relative="1" as="geometry">
            <mxPoint x="240" y="220" as="sourcePoint" />
            <mxPoint x="290" y="170" as="targetPoint" />
          </mxGeometry>
        </mxCell>
        <mxCell id="WGHWqVyYg-gQo-DfAQsf-73" value="Disk" style="text;html=1;align=center;verticalAlign=middle;whiteSpace=wrap;rounded=0;labelBackgroundColor=default;fontFamily=LXGW WenKai;" parent="1" vertex="1">
          <mxGeometry x="130" y="190" width="60" height="30" as="geometry" />
        </mxCell>
        <mxCell id="WGHWqVyYg-gQo-DfAQsf-77" value="Memory" style="text;html=1;align=center;verticalAlign=middle;whiteSpace=wrap;rounded=0;labelBackgroundColor=default;fontFamily=LXGW WenKai;" parent="1" vertex="1">
          <mxGeometry x="130" y="60" width="60" height="30" as="geometry" />
        </mxCell>
        <mxCell id="WGHWqVyYg-gQo-DfAQsf-79" value="file_name_" style="text;html=1;align=center;verticalAlign=middle;whiteSpace=wrap;rounded=0;fontFamily=LXGW WenKai;" parent="1" vertex="1">
          <mxGeometry x="300" y="80" width="60" height="30" as="geometry" />
        </mxCell>
        <mxCell id="WGHWqVyYg-gQo-DfAQsf-80" value="db_io_" style="text;html=1;align=center;verticalAlign=middle;whiteSpace=wrap;rounded=0;fontFamily=LXGW WenKai;" parent="1" vertex="1">
          <mxGeometry x="300" y="100" width="60" height="30" as="geometry" />
        </mxCell>
        <mxCell id="WGHWqVyYg-gQo-DfAQsf-81" value="closed_" style="text;html=1;align=center;verticalAlign=middle;whiteSpace=wrap;rounded=0;fontFamily=LXGW WenKai;" parent="1" vertex="1">
          <mxGeometry x="300" y="120" width="60" height="30" as="geometry" />
        </mxCell>
        <mxCell id="WGHWqVyYg-gQo-DfAQsf-82" value="🔒db_io_latch_" style="text;html=1;align=center;verticalAlign=middle;whiteSpace=wrap;rounded=0;fontFamily=LXGW WenKai;" parent="1" vertex="1">
          <mxGeometry x="370" y="100" width="110" height="30" as="geometry" />
        </mxCell>
        <mxCell id="WGHWqVyYg-gQo-DfAQsf-83" value="physical_page_id = logical_page_id + (ext_no + 1) + 1" style="text;html=1;align=center;verticalAlign=middle;whiteSpace=wrap;rounded=0;fontColor=#FF3333;fontFamily=LXGW WenKai;" parent="1" vertex="1">
          <mxGeometry x="267.5" y="30" width="325" height="30" as="geometry" />
        </mxCell>
        <mxCell id="WGHWqVyYg-gQo-DfAQsf-84" value="" style="rounded=0;whiteSpace=wrap;html=1;fontFamily=LXGW WenKai;" parent="1" vertex="1">
          <mxGeometry x="160" y="-80" width="560" height="80" as="geometry" />
        </mxCell>
        <mxCell id="WGHWqVyYg-gQo-DfAQsf-85" value="BufferPoolManager" style="text;html=1;align=center;verticalAlign=middle;whiteSpace=wrap;rounded=0;fontColor=#007FFF;fontStyle=1;fontFamily=LXGW WenKai;" parent="1" vertex="1">
          <mxGeometry x="190" y="-80" width="60" height="30" as="geometry" />
        </mxCell>
        <mxCell id="WGHWqVyYg-gQo-DfAQsf-86" value="pool_size_" style="text;html=1;align=center;verticalAlign=middle;whiteSpace=wrap;rounded=0;fontFamily=LXGW WenKai;" parent="1" vertex="1">
          <mxGeometry x="300" y="-70" width="60" height="30" as="geometry" />
        </mxCell>
        <mxCell id="WGHWqVyYg-gQo-DfAQsf-87" value="*pages_" style="text;html=1;align=center;verticalAlign=middle;whiteSpace=wrap;rounded=0;fontFamily=LXGW WenKai;" parent="1" vertex="1">
          <mxGeometry x="300" y="-40" width="60" height="30" as="geometry" />
        </mxCell>
        <mxCell id="WGHWqVyYg-gQo-DfAQsf-89" value="disk_manager_" style="text;html=1;align=center;verticalAlign=middle;whiteSpace=wrap;rounded=0;fontFamily=LXGW WenKai;" parent="1" vertex="1">
          <mxGeometry x="380" y="-70" width="60" height="30" as="geometry" />
        </mxCell>
        <mxCell id="WGHWqVyYg-gQo-DfAQsf-90" value="page_table_" style="text;html=1;align=center;verticalAlign=middle;whiteSpace=wrap;rounded=0;fontFamily=LXGW WenKai;" parent="1" vertex="1">
          <mxGeometry x="380" y="-40" width="60" height="30" as="geometry" />
        </mxCell>
        <mxCell id="WGHWqVyYg-gQo-DfAQsf-91" value="" style="endArrow=classic;html=1;rounded=0;exitX=0.5;exitY=0;exitDx=0;exitDy=0;fontFamily=LXGW WenKai;" parent="1" source="WGHWqVyYg-gQo-DfAQsf-67" target="WGHWqVyYg-gQo-DfAQsf-89" edge="1">
          <mxGeometry width="50" height="50" relative="1" as="geometry">
            <mxPoint x="285" y="250" as="sourcePoint" />
            <mxPoint x="240" y="160" as="targetPoint" />
          </mxGeometry>
        </mxCell>
        <mxCell id="WGHWqVyYg-gQo-DfAQsf-92" value="page_id -&amp;gt;(hash) frame_id -&amp;gt;(map) logical_page_id" style="text;html=1;align=center;verticalAlign=middle;whiteSpace=wrap;rounded=0;fontColor=#FF3333;fontFamily=LXGW WenKai;" parent="1" vertex="1">
          <mxGeometry x="267.5" y="-120" width="325" height="30" as="geometry" />
        </mxCell>
        <mxCell id="WGHWqVyYg-gQo-DfAQsf-93" value="*replacer_" style="text;html=1;align=center;verticalAlign=middle;whiteSpace=wrap;rounded=0;fontFamily=LXGW WenKai;" parent="1" vertex="1">
          <mxGeometry x="470" y="-70" width="60" height="30" as="geometry" />
        </mxCell>
        <mxCell id="WGHWqVyYg-gQo-DfAQsf-94" value="free_list_" style="text;html=1;align=center;verticalAlign=middle;whiteSpace=wrap;rounded=0;fontFamily=LXGW WenKai;" parent="1" vertex="1">
          <mxGeometry x="470" y="-40" width="60" height="30" as="geometry" />
        </mxCell>
        <mxCell id="WGHWqVyYg-gQo-DfAQsf-95" value="🔒latch_" style="text;html=1;align=center;verticalAlign=middle;whiteSpace=wrap;rounded=0;fontFamily=LXGW WenKai;" parent="1" vertex="1">
          <mxGeometry x="560" y="-55" width="110" height="30" as="geometry" />
        </mxCell>
        <mxCell id="H279cULPV8Rv8aNAYp1u-1" value="0" style="text;html=1;align=center;verticalAlign=middle;whiteSpace=wrap;rounded=0;fontColor=#FF3333;fontFamily=LXGW WenKai;" parent="1" vertex="1">
          <mxGeometry x="320" y="230" width="60" height="30" as="geometry" />
        </mxCell>
        <mxCell id="H279cULPV8Rv8aNAYp1u-2" value="1" style="text;html=1;align=center;verticalAlign=middle;whiteSpace=wrap;rounded=0;fontColor=#FF3333;fontFamily=LXGW WenKai;" parent="1" vertex="1">
          <mxGeometry x="465" y="255" width="60" height="30" as="geometry" />
        </mxCell>
        <mxCell id="H279cULPV8Rv8aNAYp1u-3" value="2" style="text;html=1;align=center;verticalAlign=middle;whiteSpace=wrap;rounded=0;fontColor=#FF3333;fontFamily=LXGW WenKai;" parent="1" vertex="1">
          <mxGeometry x="365" y="350" width="60" height="30" as="geometry" />
        </mxCell>
        <mxCell id="H279cULPV8Rv8aNAYp1u-4" value="0" style="text;html=1;align=center;verticalAlign=middle;whiteSpace=wrap;rounded=0;fontColor=#FF3333;fontFamily=LXGW WenKai;" parent="1" vertex="1">
          <mxGeometry x="365" y="380" width="60" height="30" as="geometry" />
        </mxCell>
        <mxCell id="H279cULPV8Rv8aNAYp1u-5" value="32703" style="text;html=1;align=center;verticalAlign=middle;whiteSpace=wrap;rounded=0;fontColor=#FF3333;fontFamily=LXGW WenKai;" parent="1" vertex="1">
          <mxGeometry x="425" y="380" width="60" height="30" as="geometry" />
        </mxCell>
        <mxCell id="H279cULPV8Rv8aNAYp1u-6" value="32705" style="text;html=1;align=center;verticalAlign=middle;whiteSpace=wrap;rounded=0;fontColor=#FF3333;fontFamily=LXGW WenKai;" parent="1" vertex="1">
          <mxGeometry x="425" y="350" width="60" height="30" as="geometry" />
        </mxCell>
        <mxCell id="H279cULPV8Rv8aNAYp1u-7" value="32706" style="text;html=1;align=center;verticalAlign=middle;whiteSpace=wrap;rounded=0;fontColor=#FF3333;fontFamily=LXGW WenKai;" parent="1" vertex="1">
          <mxGeometry x="610" y="255" width="60" height="30" as="geometry" />
        </mxCell>
        <mxCell id="hH6DTBA8pSh9ZnyAQ9mM-1" value="" style="rounded=0;whiteSpace=wrap;html=1;fontFamily=LXGW WenKai;" parent="1" vertex="1">
          <mxGeometry x="-130" y="-80" width="220" height="80" as="geometry" />
        </mxCell>
        <mxCell id="hH6DTBA8pSh9ZnyAQ9mM-2" value="Page" style="text;html=1;align=center;verticalAlign=middle;whiteSpace=wrap;rounded=0;fontColor=#007FFF;fontStyle=1;fontFamily=LXGW WenKai;" parent="1" vertex="1">
          <mxGeometry x="-130" y="-80" width="60" height="30" as="geometry" />
        </mxCell>
        <mxCell id="hH6DTBA8pSh9ZnyAQ9mM-4" value="data_" style="text;html=1;align=center;verticalAlign=middle;whiteSpace=wrap;rounded=0;fontFamily=LXGW WenKai;" parent="1" vertex="1">
          <mxGeometry x="-120" y="-60" width="60" height="30" as="geometry" />
        </mxCell>
        <mxCell id="hH6DTBA8pSh9ZnyAQ9mM-5" value="page_id" style="text;html=1;align=center;verticalAlign=middle;whiteSpace=wrap;rounded=0;fontFamily=LXGW WenKai;" parent="1" vertex="1">
          <mxGeometry x="-120" y="-30" width="60" height="30" as="geometry" />
        </mxCell>
        <mxCell id="hH6DTBA8pSh9ZnyAQ9mM-6" value="🔒pin_count" style="text;html=1;align=center;verticalAlign=middle;whiteSpace=wrap;rounded=0;fontFamily=LXGW WenKai;fontColor=#000000;" parent="1" vertex="1">
          <mxGeometry x="-50" y="-30" width="80" height="30" as="geometry" />
        </mxCell>
        <mxCell id="hH6DTBA8pSh9ZnyAQ9mM-7" value="is_dirty" style="text;html=1;align=center;verticalAlign=middle;whiteSpace=wrap;rounded=0;fontFamily=LXGW WenKai;fontColor=#FF3333;" parent="1" vertex="1">
          <mxGeometry x="-50" y="-60" width="60" height="30" as="geometry" />
        </mxCell>
        <mxCell id="hH6DTBA8pSh9ZnyAQ9mM-8" value="🔒rwlatch_" style="text;html=1;align=center;verticalAlign=middle;whiteSpace=wrap;rounded=0;fontFamily=LXGW WenKai;" parent="1" vertex="1">
          <mxGeometry x="10" y="-60" width="70" height="30" as="geometry" />
        </mxCell>
        <mxCell id="hH6DTBA8pSh9ZnyAQ9mM-9" value="" style="endArrow=classic;html=1;rounded=0;exitX=1;exitY=0.5;exitDx=0;exitDy=0;fontFamily=LXGW WenKai;" parent="1" source="hH6DTBA8pSh9ZnyAQ9mM-1" target="WGHWqVyYg-gQo-DfAQsf-87" edge="1">
          <mxGeometry width="50" height="50" relative="1" as="geometry">
            <mxPoint x="160" y="140" as="sourcePoint" />
            <mxPoint x="115" y="50" as="targetPoint" />
          </mxGeometry>
        </mxCell>
        <mxCell id="hH6DTBA8pSh9ZnyAQ9mM-45" value="" style="rounded=0;whiteSpace=wrap;html=1;fontFamily=LXGW WenKai;" parent="1" vertex="1">
          <mxGeometry x="-130" width="220" height="80" as="geometry" />
        </mxCell>
        <mxCell id="hH6DTBA8pSh9ZnyAQ9mM-46" value="Page" style="text;html=1;align=center;verticalAlign=middle;whiteSpace=wrap;rounded=0;fontColor=#007FFF;fontStyle=1;fontFamily=LXGW WenKai;" parent="1" vertex="1">
          <mxGeometry x="-130" width="60" height="30" as="geometry" />
        </mxCell>
        <mxCell id="hH6DTBA8pSh9ZnyAQ9mM-47" value="data_" style="text;html=1;align=center;verticalAlign=middle;whiteSpace=wrap;rounded=0;fontFamily=LXGW WenKai;" parent="1" vertex="1">
          <mxGeometry x="-120" y="20" width="60" height="30" as="geometry" />
        </mxCell>
        <mxCell id="hH6DTBA8pSh9ZnyAQ9mM-48" value="page_id" style="text;html=1;align=center;verticalAlign=middle;whiteSpace=wrap;rounded=0;fontFamily=LXGW WenKai;" parent="1" vertex="1">
          <mxGeometry x="-120" y="50" width="60" height="30" as="geometry" />
        </mxCell>
        <mxCell id="hH6DTBA8pSh9ZnyAQ9mM-49" value="🔒pin_count" style="text;html=1;align=center;verticalAlign=middle;whiteSpace=wrap;rounded=0;fontFamily=LXGW WenKai;fontColor=#000000;" parent="1" vertex="1">
          <mxGeometry x="-50" y="50" width="80" height="30" as="geometry" />
        </mxCell>
        <mxCell id="hH6DTBA8pSh9ZnyAQ9mM-50" value="is_dirty" style="text;html=1;align=center;verticalAlign=middle;whiteSpace=wrap;rounded=0;fontFamily=LXGW WenKai;fontColor=#FF3333;" parent="1" vertex="1">
          <mxGeometry x="-50" y="20" width="60" height="30" as="geometry" />
        </mxCell>
        <mxCell id="hH6DTBA8pSh9ZnyAQ9mM-51" value="🔒rwlatch_" style="text;html=1;align=center;verticalAlign=middle;whiteSpace=wrap;rounded=0;fontFamily=LXGW WenKai;" parent="1" vertex="1">
          <mxGeometry x="10" y="20" width="70" height="30" as="geometry" />
        </mxCell>
        <mxCell id="hH6DTBA8pSh9ZnyAQ9mM-52" value="" style="rounded=0;whiteSpace=wrap;html=1;fontFamily=LXGW WenKai;" parent="1" vertex="1">
          <mxGeometry x="-130" y="80" width="220" height="80" as="geometry" />
        </mxCell>
        <mxCell id="hH6DTBA8pSh9ZnyAQ9mM-53" value="Page" style="text;html=1;align=center;verticalAlign=middle;whiteSpace=wrap;rounded=0;fontColor=#007FFF;fontStyle=1;fontFamily=LXGW WenKai;" parent="1" vertex="1">
          <mxGeometry x="-130" y="80" width="60" height="30" as="geometry" />
        </mxCell>
        <mxCell id="hH6DTBA8pSh9ZnyAQ9mM-54" value="data_" style="text;html=1;align=center;verticalAlign=middle;whiteSpace=wrap;rounded=0;fontFamily=LXGW WenKai;" parent="1" vertex="1">
          <mxGeometry x="-120" y="100" width="60" height="30" as="geometry" />
        </mxCell>
        <mxCell id="hH6DTBA8pSh9ZnyAQ9mM-55" value="page_id" style="text;html=1;align=center;verticalAlign=middle;whiteSpace=wrap;rounded=0;fontFamily=LXGW WenKai;" parent="1" vertex="1">
          <mxGeometry x="-120" y="130" width="60" height="30" as="geometry" />
        </mxCell>
        <mxCell id="hH6DTBA8pSh9ZnyAQ9mM-56" value="🔒pin_count" style="text;html=1;align=center;verticalAlign=middle;whiteSpace=wrap;rounded=0;fontFamily=LXGW WenKai;fontColor=#000000;" parent="1" vertex="1">
          <mxGeometry x="-50" y="130" width="80" height="30" as="geometry" />
        </mxCell>
        <mxCell id="hH6DTBA8pSh9ZnyAQ9mM-57" value="is_dirty" style="text;html=1;align=center;verticalAlign=middle;whiteSpace=wrap;rounded=0;fontFamily=LXGW WenKai;fontColor=#FF3333;" parent="1" vertex="1">
          <mxGeometry x="-50" y="100" width="60" height="30" as="geometry" />
        </mxCell>
        <mxCell id="hH6DTBA8pSh9ZnyAQ9mM-58" value="🔒rwlatch_" style="text;html=1;align=center;verticalAlign=middle;whiteSpace=wrap;rounded=0;fontFamily=LXGW WenKai;" parent="1" vertex="1">
          <mxGeometry x="10" y="100" width="70" height="30" as="geometry" />
        </mxCell>
        <mxCell id="aZIdhgkVwvz4AqaduToY-1" value="&lt;div&gt;&lt;span style=&quot;background-color: initial;&quot;&gt;free_list&lt;/span&gt;&lt;br&gt;&lt;/div&gt;" style="ellipse;whiteSpace=wrap;html=1;aspect=fixed;fontFamily=LXGW WenKai;" parent="1" vertex="1">
          <mxGeometry x="890" y="-80" width="60" height="60" as="geometry" />
        </mxCell>
        <mxCell id="aZIdhgkVwvz4AqaduToY-3" value="page_table_" style="ellipse;whiteSpace=wrap;html=1;aspect=fixed;fontFamily=LXGW WenKai;" parent="1" vertex="1">
          <mxGeometry x="800" y="5" width="60" height="60" as="geometry" />
        </mxCell>
        <mxCell id="aZIdhgkVwvz4AqaduToY-4" value="replacer_&lt;div&gt;dirty&lt;/div&gt;" style="ellipse;whiteSpace=wrap;html=1;aspect=fixed;fontFamily=LXGW WenKai;" parent="1" vertex="1">
          <mxGeometry x="890" y="80" width="60" height="60" as="geometry" />
        </mxCell>
        <mxCell id="aZIdhgkVwvz4AqaduToY-5" value="replacer_&lt;div&gt;clean&lt;/div&gt;" style="ellipse;whiteSpace=wrap;html=1;aspect=fixed;fontFamily=LXGW WenKai;" parent="1" vertex="1">
          <mxGeometry x="970" y="5" width="60" height="60" as="geometry" />
        </mxCell>
        <mxCell id="aZIdhgkVwvz4AqaduToY-8" value="" style="endArrow=classic;html=1;rounded=0;entryX=0.5;entryY=0;entryDx=0;entryDy=0;exitX=0;exitY=0.5;exitDx=0;exitDy=0;fontFamily=LXGW WenKai;" parent="1" source="aZIdhgkVwvz4AqaduToY-1" target="aZIdhgkVwvz4AqaduToY-3" edge="1">
          <mxGeometry width="50" height="50" relative="1" as="geometry">
            <mxPoint x="780" y="155" as="sourcePoint" />
            <mxPoint x="830" y="105" as="targetPoint" />
          </mxGeometry>
        </mxCell>
        <mxCell id="aZIdhgkVwvz4AqaduToY-9" value="New, fetch" style="edgeLabel;html=1;align=center;verticalAlign=middle;resizable=0;points=[];fontFamily=LXGW WenKai;" parent="aZIdhgkVwvz4AqaduToY-8" vertex="1" connectable="0">
          <mxGeometry x="-0.0603" y="-1" relative="1" as="geometry">
            <mxPoint as="offset" />
          </mxGeometry>
        </mxCell>
        <mxCell id="aZIdhgkVwvz4AqaduToY-10" value="frame_id" style="ellipse;whiteSpace=wrap;html=1;aspect=fixed;fontFamily=LXGW WenKai;" parent="1" vertex="1">
          <mxGeometry x="890" y="-170" width="60" height="60" as="geometry" />
        </mxCell>
        <mxCell id="aZIdhgkVwvz4AqaduToY-11" value="" style="endArrow=classic;html=1;rounded=0;entryX=0.5;entryY=0;entryDx=0;entryDy=0;exitX=0.522;exitY=0.963;exitDx=0;exitDy=0;exitPerimeter=0;fontFamily=LXGW WenKai;" parent="1" source="aZIdhgkVwvz4AqaduToY-10" target="aZIdhgkVwvz4AqaduToY-1" edge="1">
          <mxGeometry width="50" height="50" relative="1" as="geometry">
            <mxPoint x="950" y="-65" as="sourcePoint" />
            <mxPoint x="840" y="15" as="targetPoint" />
          </mxGeometry>
        </mxCell>
        <mxCell id="aZIdhgkVwvz4AqaduToY-12" value="init" style="edgeLabel;html=1;align=center;verticalAlign=middle;resizable=0;points=[];fontFamily=LXGW WenKai;" parent="aZIdhgkVwvz4AqaduToY-11" vertex="1" connectable="0">
          <mxGeometry x="-0.0603" y="-1" relative="1" as="geometry">
            <mxPoint as="offset" />
          </mxGeometry>
        </mxCell>
        <mxCell id="aZIdhgkVwvz4AqaduToY-13" value="unpin_dirty" style="endArrow=classic;html=1;rounded=0;entryX=0;entryY=0;entryDx=0;entryDy=0;fontFamily=LXGW WenKai;" parent="1" source="aZIdhgkVwvz4AqaduToY-3" target="aZIdhgkVwvz4AqaduToY-4" edge="1">
          <mxGeometry width="50" height="50" relative="1" as="geometry">
            <mxPoint x="950" y="65" as="sourcePoint" />
            <mxPoint x="929" y="137" as="targetPoint" />
          </mxGeometry>
        </mxCell>
        <mxCell id="aZIdhgkVwvz4AqaduToY-16" value="unpin_clean" style="endArrow=classic;html=1;rounded=0;entryX=0;entryY=0.5;entryDx=0;entryDy=0;exitX=1;exitY=0.5;exitDx=0;exitDy=0;fontFamily=LXGW WenKai;" parent="1" source="aZIdhgkVwvz4AqaduToY-3" target="aZIdhgkVwvz4AqaduToY-5" edge="1">
          <mxGeometry width="50" height="50" relative="1" as="geometry">
            <mxPoint x="863" y="64" as="sourcePoint" />
            <mxPoint x="969" y="149" as="targetPoint" />
          </mxGeometry>
        </mxCell>
        <mxCell id="aZIdhgkVwvz4AqaduToY-17" value="flush" style="endArrow=classic;html=1;rounded=0;entryX=0;entryY=1;entryDx=0;entryDy=0;exitX=1;exitY=0;exitDx=0;exitDy=0;fontFamily=LXGW WenKai;" parent="1" source="aZIdhgkVwvz4AqaduToY-4" target="aZIdhgkVwvz4AqaduToY-5" edge="1">
          <mxGeometry width="50" height="50" relative="1" as="geometry">
            <mxPoint x="863" y="64" as="sourcePoint" />
            <mxPoint x="969" y="149" as="targetPoint" />
          </mxGeometry>
        </mxCell>
        <mxCell id="aZIdhgkVwvz4AqaduToY-18" value="Dealloc" style="endArrow=classic;html=1;rounded=0;entryX=1;entryY=1;entryDx=0;entryDy=0;exitX=0.5;exitY=0;exitDx=0;exitDy=0;fontFamily=LXGW WenKai;" parent="1" source="aZIdhgkVwvz4AqaduToY-5" target="aZIdhgkVwvz4AqaduToY-1" edge="1">
          <mxGeometry width="50" height="50" relative="1" as="geometry">
            <mxPoint x="970" y="-25" as="sourcePoint" />
            <mxPoint x="1160" as="targetPoint" />
          </mxGeometry>
        </mxCell>
        <mxCell id="aZIdhgkVwvz4AqaduToY-19" value="" style="endArrow=classic;html=1;rounded=0;entryX=0;entryY=1;entryDx=0;entryDy=0;exitX=1;exitY=0;exitDx=0;exitDy=0;fontFamily=LXGW WenKai;" parent="1" source="aZIdhgkVwvz4AqaduToY-3" target="aZIdhgkVwvz4AqaduToY-1" edge="1">
          <mxGeometry width="50" height="50" relative="1" as="geometry">
            <mxPoint x="950" y="-65" as="sourcePoint" />
            <mxPoint x="840" y="15" as="targetPoint" />
          </mxGeometry>
        </mxCell>
        <mxCell id="aZIdhgkVwvz4AqaduToY-20" value="Dealloc" style="edgeLabel;html=1;align=center;verticalAlign=middle;resizable=0;points=[];fontFamily=LXGW WenKai;" parent="aZIdhgkVwvz4AqaduToY-19" vertex="1" connectable="0">
          <mxGeometry x="-0.0603" y="-1" relative="1" as="geometry">
            <mxPoint as="offset" />
          </mxGeometry>
        </mxCell>
        <mxCell id="aZIdhgkVwvz4AqaduToY-21" value="New, fetch" style="endArrow=classic;html=1;rounded=0;entryX=1;entryY=0;entryDx=0;entryDy=0;exitX=0;exitY=0;exitDx=0;exitDy=0;fontFamily=LXGW WenKai;" parent="1" source="aZIdhgkVwvz4AqaduToY-5" target="aZIdhgkVwvz4AqaduToY-3" edge="1">
          <mxGeometry width="50" height="50" relative="1" as="geometry">
            <mxPoint x="800" y="110" as="sourcePoint" />
            <mxPoint x="906" y="195" as="targetPoint" />
          </mxGeometry>
        </mxCell>
        <mxCell id="saqj0XL1vO1jZBFyPsfs-2" value="Table" style="shape=table;startSize=30;container=1;collapsible=0;childLayout=tableLayout;strokeColor=default;fontSize=16;fontFamily=LXGW WenKai;" vertex="1" parent="1">
          <mxGeometry x="160" y="-430" width="180" height="150" as="geometry" />
        </mxCell>
        <mxCell id="saqj0XL1vO1jZBFyPsfs-3" value="" style="shape=tableRow;horizontal=0;startSize=0;swimlaneHead=0;swimlaneBody=0;strokeColor=inherit;top=0;left=0;bottom=0;right=0;collapsible=0;dropTarget=0;fillColor=none;points=[[0,0.5],[1,0.5]];portConstraint=eastwest;fontSize=16;fontFamily=LXGW WenKai;" vertex="1" parent="saqj0XL1vO1jZBFyPsfs-2">
          <mxGeometry y="30" width="180" height="40" as="geometry" />
        </mxCell>
        <mxCell id="saqj0XL1vO1jZBFyPsfs-4" value="" style="shape=partialRectangle;html=1;whiteSpace=wrap;connectable=0;strokeColor=inherit;overflow=hidden;fillColor=none;top=0;left=0;bottom=0;right=0;pointerEvents=1;fontSize=16;fontFamily=LXGW WenKai;" vertex="1" parent="saqj0XL1vO1jZBFyPsfs-3">
          <mxGeometry width="60" height="40" as="geometry">
            <mxRectangle width="60" height="40" as="alternateBounds" />
          </mxGeometry>
        </mxCell>
        <mxCell id="saqj0XL1vO1jZBFyPsfs-5" value="" style="shape=partialRectangle;html=1;whiteSpace=wrap;connectable=0;strokeColor=inherit;overflow=hidden;fillColor=none;top=0;left=0;bottom=0;right=0;pointerEvents=1;fontSize=16;fontFamily=LXGW WenKai;" vertex="1" parent="saqj0XL1vO1jZBFyPsfs-3">
          <mxGeometry x="60" width="60" height="40" as="geometry">
            <mxRectangle width="60" height="40" as="alternateBounds" />
          </mxGeometry>
        </mxCell>
        <mxCell id="saqj0XL1vO1jZBFyPsfs-6" value="" style="shape=partialRectangle;html=1;whiteSpace=wrap;connectable=0;strokeColor=inherit;overflow=hidden;fillColor=none;top=0;left=0;bottom=0;right=0;pointerEvents=1;fontSize=16;fontFamily=LXGW WenKai;" vertex="1" parent="saqj0XL1vO1jZBFyPsfs-3">
          <mxGeometry x="120" width="60" height="40" as="geometry">
            <mxRectangle width="60" height="40" as="alternateBounds" />
          </mxGeometry>
        </mxCell>
        <mxCell id="saqj0XL1vO1jZBFyPsfs-7" value="" style="shape=tableRow;horizontal=0;startSize=0;swimlaneHead=0;swimlaneBody=0;strokeColor=inherit;top=0;left=0;bottom=0;right=0;collapsible=0;dropTarget=0;fillColor=none;points=[[0,0.5],[1,0.5]];portConstraint=eastwest;fontSize=16;fontFamily=LXGW WenKai;" vertex="1" parent="saqj0XL1vO1jZBFyPsfs-2">
          <mxGeometry y="70" width="180" height="40" as="geometry" />
        </mxCell>
        <mxCell id="saqj0XL1vO1jZBFyPsfs-8" value="" style="shape=partialRectangle;html=1;whiteSpace=wrap;connectable=0;strokeColor=inherit;overflow=hidden;fillColor=none;top=0;left=0;bottom=0;right=0;pointerEvents=1;fontSize=16;fontFamily=LXGW WenKai;" vertex="1" parent="saqj0XL1vO1jZBFyPsfs-7">
          <mxGeometry width="60" height="40" as="geometry">
            <mxRectangle width="60" height="40" as="alternateBounds" />
          </mxGeometry>
        </mxCell>
        <mxCell id="saqj0XL1vO1jZBFyPsfs-9" value="" style="shape=partialRectangle;html=1;whiteSpace=wrap;connectable=0;strokeColor=inherit;overflow=hidden;fillColor=none;top=0;left=0;bottom=0;right=0;pointerEvents=1;fontSize=16;fontFamily=LXGW WenKai;" vertex="1" parent="saqj0XL1vO1jZBFyPsfs-7">
          <mxGeometry x="60" width="60" height="40" as="geometry">
            <mxRectangle width="60" height="40" as="alternateBounds" />
          </mxGeometry>
        </mxCell>
        <mxCell id="saqj0XL1vO1jZBFyPsfs-10" value="" style="shape=partialRectangle;html=1;whiteSpace=wrap;connectable=0;strokeColor=inherit;overflow=hidden;fillColor=none;top=0;left=0;bottom=0;right=0;pointerEvents=1;fontSize=16;fontFamily=LXGW WenKai;" vertex="1" parent="saqj0XL1vO1jZBFyPsfs-7">
          <mxGeometry x="120" width="60" height="40" as="geometry">
            <mxRectangle width="60" height="40" as="alternateBounds" />
          </mxGeometry>
        </mxCell>
        <mxCell id="saqj0XL1vO1jZBFyPsfs-11" value="" style="shape=tableRow;horizontal=0;startSize=0;swimlaneHead=0;swimlaneBody=0;strokeColor=inherit;top=0;left=0;bottom=0;right=0;collapsible=0;dropTarget=0;fillColor=none;points=[[0,0.5],[1,0.5]];portConstraint=eastwest;fontSize=16;fontFamily=LXGW WenKai;" vertex="1" parent="saqj0XL1vO1jZBFyPsfs-2">
          <mxGeometry y="110" width="180" height="40" as="geometry" />
        </mxCell>
        <mxCell id="saqj0XL1vO1jZBFyPsfs-12" value="" style="shape=partialRectangle;html=1;whiteSpace=wrap;connectable=0;strokeColor=inherit;overflow=hidden;fillColor=none;top=0;left=0;bottom=0;right=0;pointerEvents=1;fontSize=16;fontFamily=LXGW WenKai;" vertex="1" parent="saqj0XL1vO1jZBFyPsfs-11">
          <mxGeometry width="60" height="40" as="geometry">
            <mxRectangle width="60" height="40" as="alternateBounds" />
          </mxGeometry>
        </mxCell>
        <mxCell id="saqj0XL1vO1jZBFyPsfs-13" value="" style="shape=partialRectangle;html=1;whiteSpace=wrap;connectable=0;strokeColor=inherit;overflow=hidden;fillColor=none;top=0;left=0;bottom=0;right=0;pointerEvents=1;fontSize=16;fontFamily=LXGW WenKai;" vertex="1" parent="saqj0XL1vO1jZBFyPsfs-11">
          <mxGeometry x="60" width="60" height="40" as="geometry">
            <mxRectangle width="60" height="40" as="alternateBounds" />
          </mxGeometry>
        </mxCell>
        <mxCell id="saqj0XL1vO1jZBFyPsfs-14" value="" style="shape=partialRectangle;html=1;whiteSpace=wrap;connectable=0;strokeColor=inherit;overflow=hidden;fillColor=none;top=0;left=0;bottom=0;right=0;pointerEvents=1;fontSize=16;fontFamily=LXGW WenKai;" vertex="1" parent="saqj0XL1vO1jZBFyPsfs-11">
          <mxGeometry x="120" width="60" height="40" as="geometry">
            <mxRectangle width="60" height="40" as="alternateBounds" />
          </mxGeometry>
        </mxCell>
        <mxCell id="saqj0XL1vO1jZBFyPsfs-15" value="Column" style="rounded=0;whiteSpace=wrap;html=1;fillColor=#d5e8d4;strokeColor=#82b366;opacity=80;fontFamily=LXGW WenKai;" vertex="1" parent="1">
          <mxGeometry x="150" y="-440" width="70" height="60" as="geometry" />
        </mxCell>
        <mxCell id="saqj0XL1vO1jZBFyPsfs-16" value="Schema" style="rounded=0;whiteSpace=wrap;html=1;fillColor=#d5e8d4;strokeColor=#82b366;opacity=80;fontFamily=LXGW WenKai;" vertex="1" parent="1">
          <mxGeometry x="130" y="-470" width="230" height="50" as="geometry" />
        </mxCell>
        <mxCell id="saqj0XL1vO1jZBFyPsfs-17" value="Row" style="rounded=0;whiteSpace=wrap;html=1;fillColor=#d5e8d4;strokeColor=#82b366;opacity=80;fontFamily=LXGW WenKai;" vertex="1" parent="1">
          <mxGeometry x="130" y="-324" width="230" height="50" as="geometry" />
        </mxCell>
        <mxCell id="saqj0XL1vO1jZBFyPsfs-18" value="Field" style="rounded=0;whiteSpace=wrap;html=1;fillColor=#d5e8d4;strokeColor=#82b366;opacity=80;fontFamily=LXGW WenKai;" vertex="1" parent="1">
          <mxGeometry x="267.5" y="-374" width="82.5" height="50" as="geometry" />
        </mxCell>
        <mxCell id="saqj0XL1vO1jZBFyPsfs-20" value="RowId: 64bit&lt;div&gt;page_id | slot_num&lt;/div&gt;" style="text;html=1;align=center;verticalAlign=middle;whiteSpace=wrap;rounded=0;fontFamily=LXGW WenKai;" vertex="1" parent="1">
          <mxGeometry x="-20" y="-310" width="140" height="30" as="geometry" />
        </mxCell>
        <mxCell id="saqj0XL1vO1jZBFyPsfs-21" value="Row" style="rounded=0;whiteSpace=wrap;html=1;fillColor=#d5e8d4;strokeColor=#82b366;opacity=80;fontFamily=LXGW WenKai;" vertex="1" parent="1">
          <mxGeometry x="620" y="-410" width="120" height="20" as="geometry" />
        </mxCell>
        <mxCell id="saqj0XL1vO1jZBFyPsfs-22" value="Row" style="rounded=0;whiteSpace=wrap;html=1;fillColor=#d5e8d4;strokeColor=#82b366;opacity=80;fontFamily=LXGW WenKai;" vertex="1" parent="1">
          <mxGeometry x="620" y="-390" width="120" height="20" as="geometry" />
        </mxCell>
        <mxCell id="saqj0XL1vO1jZBFyPsfs-23" value="Row" style="rounded=0;whiteSpace=wrap;html=1;fillColor=#d5e8d4;strokeColor=#82b366;opacity=80;fontFamily=LXGW WenKai;" vertex="1" parent="1">
          <mxGeometry x="620" y="-370" width="120" height="20" as="geometry" />
        </mxCell>
        <mxCell id="saqj0XL1vO1jZBFyPsfs-24" value="Row" style="rounded=0;whiteSpace=wrap;html=1;fillColor=#d5e8d4;strokeColor=#82b366;opacity=80;fontFamily=LXGW WenKai;" vertex="1" parent="1">
          <mxGeometry x="620" y="-350" width="120" height="20" as="geometry" />
        </mxCell>
        <mxCell id="saqj0XL1vO1jZBFyPsfs-27" value="TableHeap" style="text;html=1;align=center;verticalAlign=middle;whiteSpace=wrap;rounded=0;fontFamily=LXGW WenKai;" vertex="1" parent="1">
          <mxGeometry x="625" y="-310" width="60" height="30" as="geometry" />
        </mxCell>
        <mxCell id="saqj0XL1vO1jZBFyPsfs-28" value="slot_num" style="text;html=1;align=center;verticalAlign=middle;whiteSpace=wrap;rounded=0;fontFamily=LXGW WenKai;" vertex="1" parent="1">
          <mxGeometry x="560" y="-415" width="60" height="30" as="geometry" />
        </mxCell>
        <mxCell id="saqj0XL1vO1jZBFyPsfs-29" value="page_id" style="text;html=1;align=center;verticalAlign=middle;whiteSpace=wrap;rounded=0;fontFamily=LXGW WenKai;" vertex="1" parent="1">
          <mxGeometry x="550" y="-310" width="60" height="30" as="geometry" />
        </mxCell>
        <mxCell id="saqj0XL1vO1jZBFyPsfs-30" value="" style="rounded=0;whiteSpace=wrap;html=1;fontFamily=LXGW WenKai;" vertex="1" parent="1">
          <mxGeometry x="820" y="-430" width="210" height="120" as="geometry" />
        </mxCell>
        <mxCell id="saqj0XL1vO1jZBFyPsfs-31" value="Row" style="rounded=0;whiteSpace=wrap;html=1;fillColor=#d5e8d4;strokeColor=#82b366;opacity=80;fontFamily=LXGW WenKai;" vertex="1" parent="1">
          <mxGeometry x="890" y="-410" width="120" height="20" as="geometry" />
        </mxCell>
        <mxCell id="saqj0XL1vO1jZBFyPsfs-32" value="Row" style="rounded=0;whiteSpace=wrap;html=1;fillColor=#d5e8d4;strokeColor=#82b366;opacity=80;fontFamily=LXGW WenKai;" vertex="1" parent="1">
          <mxGeometry x="890" y="-390" width="120" height="20" as="geometry" />
        </mxCell>
        <mxCell id="saqj0XL1vO1jZBFyPsfs-33" value="Row" style="rounded=0;whiteSpace=wrap;html=1;fillColor=#d5e8d4;strokeColor=#82b366;opacity=80;fontFamily=LXGW WenKai;" vertex="1" parent="1">
          <mxGeometry x="890" y="-370" width="120" height="20" as="geometry" />
        </mxCell>
        <mxCell id="saqj0XL1vO1jZBFyPsfs-34" value="Row" style="rounded=0;whiteSpace=wrap;html=1;fillColor=#d5e8d4;strokeColor=#82b366;opacity=80;fontFamily=LXGW WenKai;" vertex="1" parent="1">
          <mxGeometry x="890" y="-350" width="120" height="20" as="geometry" />
        </mxCell>
        <mxCell id="saqj0XL1vO1jZBFyPsfs-35" value="TableHeap" style="text;html=1;align=center;verticalAlign=middle;whiteSpace=wrap;rounded=0;fontFamily=LXGW WenKai;" vertex="1" parent="1">
          <mxGeometry x="895" y="-310" width="60" height="30" as="geometry" />
        </mxCell>
        <mxCell id="saqj0XL1vO1jZBFyPsfs-36" value="slot_num" style="text;html=1;align=center;verticalAlign=middle;whiteSpace=wrap;rounded=0;fontFamily=LXGW WenKai;" vertex="1" parent="1">
          <mxGeometry x="830" y="-415" width="60" height="30" as="geometry" />
        </mxCell>
        <mxCell id="saqj0XL1vO1jZBFyPsfs-37" value="page_id" style="text;html=1;align=center;verticalAlign=middle;whiteSpace=wrap;rounded=0;fontFamily=LXGW WenKai;" vertex="1" parent="1">
          <mxGeometry x="820" y="-310" width="60" height="30" as="geometry" />
        </mxCell>
        <mxCell id="saqj0XL1vO1jZBFyPsfs-38" value="" style="rounded=0;whiteSpace=wrap;html=1;fontFamily=LXGW WenKai;" vertex="1" parent="1">
          <mxGeometry x="1090" y="-430" width="210" height="120" as="geometry" />
        </mxCell>
        <mxCell id="saqj0XL1vO1jZBFyPsfs-39" value="Row" style="rounded=0;whiteSpace=wrap;html=1;fillColor=#d5e8d4;strokeColor=#82b366;opacity=80;fontFamily=LXGW WenKai;" vertex="1" parent="1">
          <mxGeometry x="1160" y="-410" width="120" height="20" as="geometry" />
        </mxCell>
        <mxCell id="saqj0XL1vO1jZBFyPsfs-40" value="Row" style="rounded=0;whiteSpace=wrap;html=1;fillColor=#d5e8d4;strokeColor=#82b366;opacity=80;fontFamily=LXGW WenKai;" vertex="1" parent="1">
          <mxGeometry x="1160" y="-390" width="120" height="20" as="geometry" />
        </mxCell>
        <mxCell id="saqj0XL1vO1jZBFyPsfs-41" value="Row" style="rounded=0;whiteSpace=wrap;html=1;fillColor=#d5e8d4;strokeColor=#82b366;opacity=80;fontFamily=LXGW WenKai;" vertex="1" parent="1">
          <mxGeometry x="1160" y="-370" width="120" height="20" as="geometry" />
        </mxCell>
        <mxCell id="saqj0XL1vO1jZBFyPsfs-42" value="Row" style="rounded=0;whiteSpace=wrap;html=1;fillColor=#d5e8d4;strokeColor=#82b366;opacity=80;fontFamily=LXGW WenKai;" vertex="1" parent="1">
          <mxGeometry x="1160" y="-350" width="120" height="20" as="geometry" />
        </mxCell>
        <mxCell id="saqj0XL1vO1jZBFyPsfs-43" value="TableHeap" style="text;html=1;align=center;verticalAlign=middle;whiteSpace=wrap;rounded=0;fontFamily=LXGW WenKai;" vertex="1" parent="1">
          <mxGeometry x="1165" y="-310" width="60" height="30" as="geometry" />
        </mxCell>
        <mxCell id="saqj0XL1vO1jZBFyPsfs-44" value="slot_num" style="text;html=1;align=center;verticalAlign=middle;whiteSpace=wrap;rounded=0;fontFamily=LXGW WenKai;" vertex="1" parent="1">
          <mxGeometry x="1100" y="-415" width="60" height="30" as="geometry" />
        </mxCell>
        <mxCell id="saqj0XL1vO1jZBFyPsfs-45" value="page_id" style="text;html=1;align=center;verticalAlign=middle;whiteSpace=wrap;rounded=0;fontFamily=LXGW WenKai;" vertex="1" parent="1">
          <mxGeometry x="1090" y="-310" width="60" height="30" as="geometry" />
        </mxCell>
        <mxCell id="saqj0XL1vO1jZBFyPsfs-46" value="" style="shape=flexArrow;endArrow=classic;startArrow=classic;html=1;rounded=0;entryX=0;entryY=0.5;entryDx=0;entryDy=0;fontFamily=LXGW WenKai;" edge="1" parent="1" source="saqj0XL1vO1jZBFyPsfs-25" target="saqj0XL1vO1jZBFyPsfs-30">
          <mxGeometry width="100" height="100" relative="1" as="geometry">
            <mxPoint x="580" y="-160" as="sourcePoint" />
            <mxPoint x="680" y="-260" as="targetPoint" />
          </mxGeometry>
        </mxCell>
        <mxCell id="saqj0XL1vO1jZBFyPsfs-47" value="" style="shape=flexArrow;endArrow=classic;startArrow=classic;html=1;rounded=0;fontFamily=LXGW WenKai;" edge="1" parent="1" source="saqj0XL1vO1jZBFyPsfs-30" target="saqj0XL1vO1jZBFyPsfs-38">
          <mxGeometry width="100" height="100" relative="1" as="geometry">
            <mxPoint x="1030" y="-370" as="sourcePoint" />
            <mxPoint x="1090" y="-370" as="targetPoint" />
          </mxGeometry>
        </mxCell>
      </root>
    </mxGraphModel>
  </diagram>
</mxfile>
